<mxfile host="Electron" agent="Mozilla/5.0 (Windows NT 10.0; Win64; x64) AppleWebKit/537.36 (KHTML, like Gecko) draw.io/26.2.2 Chrome/134.0.6998.178 Electron/35.1.2 Safari/537.36" version="26.2.2">
  <diagram name="Page-1" id="AUs1ahVUK8uHBAeh4c81">
    <mxGraphModel dx="788" dy="524" grid="1" gridSize="10" guides="1" tooltips="1" connect="1" arrows="1" fold="1" page="1" pageScale="1" pageWidth="850" pageHeight="1100" math="0" shadow="0">
      <root>
        <mxCell id="0" />
        <mxCell id="1" parent="0" />
        <mxCell id="A14_2DxmDHKERhYyyaqD-6" style="edgeStyle=orthogonalEdgeStyle;rounded=0;orthogonalLoop=1;jettySize=auto;html=1;exitX=0.5;exitY=1;exitDx=0;exitDy=0;exitPerimeter=0;" parent="1" source="A14_2DxmDHKERhYyyaqD-4" edge="1">
          <mxGeometry relative="1" as="geometry">
            <mxPoint x="375" y="150" as="targetPoint" />
          </mxGeometry>
        </mxCell>
        <mxCell id="A14_2DxmDHKERhYyyaqD-4" value="" style="strokeWidth=2;html=1;shape=mxgraph.flowchart.start_2;whiteSpace=wrap;fillColor=#000000;" parent="1" vertex="1">
          <mxGeometry x="360" y="90" width="30" height="30" as="geometry" />
        </mxCell>
        <mxCell id="A14_2DxmDHKERhYyyaqD-8" style="edgeStyle=orthogonalEdgeStyle;rounded=0;orthogonalLoop=1;jettySize=auto;html=1;exitX=0.5;exitY=1;exitDx=0;exitDy=0;" parent="1" source="A14_2DxmDHKERhYyyaqD-7" target="A14_2DxmDHKERhYyyaqD-9" edge="1">
          <mxGeometry relative="1" as="geometry">
            <mxPoint x="375" y="230" as="targetPoint" />
          </mxGeometry>
        </mxCell>
        <mxCell id="A14_2DxmDHKERhYyyaqD-7" value="Navigate to&amp;nbsp;&lt;br&gt;&quot;Post a Job&quot;" style="rounded=1;whiteSpace=wrap;html=1;" parent="1" vertex="1">
          <mxGeometry x="335" y="150" width="80" height="40" as="geometry" />
        </mxCell>
        <mxCell id="A14_2DxmDHKERhYyyaqD-10" style="edgeStyle=orthogonalEdgeStyle;rounded=0;orthogonalLoop=1;jettySize=auto;html=1;exitX=0.5;exitY=1;exitDx=0;exitDy=0;" parent="1" source="A14_2DxmDHKERhYyyaqD-9" target="A14_2DxmDHKERhYyyaqD-11" edge="1">
          <mxGeometry relative="1" as="geometry">
            <mxPoint x="375" y="300" as="targetPoint" />
          </mxGeometry>
        </mxCell>
        <mxCell id="A14_2DxmDHKERhYyyaqD-9" value="Display Job Posting From" style="rounded=1;whiteSpace=wrap;html=1;" parent="1" vertex="1">
          <mxGeometry x="328.75" y="220" width="92.5" height="40" as="geometry" />
        </mxCell>
        <mxCell id="A14_2DxmDHKERhYyyaqD-12" style="edgeStyle=orthogonalEdgeStyle;rounded=0;orthogonalLoop=1;jettySize=auto;html=1;exitX=0.5;exitY=1;exitDx=0;exitDy=0;" parent="1" source="A14_2DxmDHKERhYyyaqD-11" target="A14_2DxmDHKERhYyyaqD-13" edge="1">
          <mxGeometry relative="1" as="geometry">
            <mxPoint x="375" y="360" as="targetPoint" />
          </mxGeometry>
        </mxCell>
        <mxCell id="A14_2DxmDHKERhYyyaqD-11" value="Enter Job Details" style="rounded=1;whiteSpace=wrap;html=1;" parent="1" vertex="1">
          <mxGeometry x="326.25" y="290" width="97.5" height="40" as="geometry" />
        </mxCell>
        <mxCell id="A14_2DxmDHKERhYyyaqD-14" style="edgeStyle=orthogonalEdgeStyle;rounded=0;orthogonalLoop=1;jettySize=auto;html=1;exitX=0.5;exitY=1;exitDx=0;exitDy=0;" parent="1" source="A14_2DxmDHKERhYyyaqD-13" target="A14_2DxmDHKERhYyyaqD-15" edge="1">
          <mxGeometry relative="1" as="geometry">
            <mxPoint x="375" y="440" as="targetPoint" />
          </mxGeometry>
        </mxCell>
        <mxCell id="A14_2DxmDHKERhYyyaqD-13" value="Validate Input" style="rounded=1;whiteSpace=wrap;html=1;" parent="1" vertex="1">
          <mxGeometry x="322.5" y="360" width="105" height="40" as="geometry" />
        </mxCell>
        <mxCell id="A14_2DxmDHKERhYyyaqD-16" style="edgeStyle=orthogonalEdgeStyle;rounded=0;orthogonalLoop=1;jettySize=auto;html=1;exitX=0.5;exitY=1;exitDx=0;exitDy=0;" parent="1" source="A14_2DxmDHKERhYyyaqD-15" target="A14_2DxmDHKERhYyyaqD-17" edge="1">
          <mxGeometry relative="1" as="geometry">
            <mxPoint x="375" y="510" as="targetPoint" />
          </mxGeometry>
        </mxCell>
        <mxCell id="A14_2DxmDHKERhYyyaqD-20" style="edgeStyle=orthogonalEdgeStyle;rounded=0;orthogonalLoop=1;jettySize=auto;html=1;exitX=0;exitY=0.5;exitDx=0;exitDy=0;entryX=0;entryY=0.5;entryDx=0;entryDy=0;" parent="1" source="A14_2DxmDHKERhYyyaqD-15" target="A14_2DxmDHKERhYyyaqD-11" edge="1">
          <mxGeometry relative="1" as="geometry">
            <Array as="points">
              <mxPoint x="260" y="455" />
              <mxPoint x="260" y="310" />
            </Array>
          </mxGeometry>
        </mxCell>
        <mxCell id="A14_2DxmDHKERhYyyaqD-15" value="" style="rhombus;whiteSpace=wrap;html=1;" parent="1" vertex="1">
          <mxGeometry x="347.5" y="430" width="55" height="50" as="geometry" />
        </mxCell>
        <mxCell id="A14_2DxmDHKERhYyyaqD-18" style="edgeStyle=orthogonalEdgeStyle;rounded=0;orthogonalLoop=1;jettySize=auto;html=1;exitX=0.5;exitY=1;exitDx=0;exitDy=0;" parent="1" source="A14_2DxmDHKERhYyyaqD-17" edge="1">
          <mxGeometry relative="1" as="geometry">
            <mxPoint x="375" y="580" as="targetPoint" />
          </mxGeometry>
        </mxCell>
        <mxCell id="A14_2DxmDHKERhYyyaqD-17" value="Publish Jobs And Notify Job Seekers" style="rounded=1;whiteSpace=wrap;html=1;" parent="1" vertex="1">
          <mxGeometry x="327.5" y="510" width="95" height="40" as="geometry" />
        </mxCell>
        <mxCell id="A14_2DxmDHKERhYyyaqD-19" value="" style="points=[[0.145,0.145,0],[0.5,0,0],[0.855,0.145,0],[1,0.5,0],[0.855,0.855,0],[0.5,1,0],[0.145,0.855,0],[0,0.5,0]];shape=mxgraph.bpmn.event;html=1;verticalLabelPosition=bottom;labelBackgroundColor=#ffffff;verticalAlign=top;align=center;perimeter=ellipsePerimeter;outlineConnect=0;aspect=fixed;outline=end;symbol=terminate;" parent="1" vertex="1">
          <mxGeometry x="355" y="580" width="40" height="40" as="geometry" />
        </mxCell>
        <mxCell id="A14_2DxmDHKERhYyyaqD-21" value="Valid" style="text;html=1;align=center;verticalAlign=middle;whiteSpace=wrap;rounded=0;" parent="1" vertex="1">
          <mxGeometry x="371.25" y="480" width="50" height="20" as="geometry" />
        </mxCell>
        <mxCell id="A14_2DxmDHKERhYyyaqD-22" value="Not Valid" style="text;html=1;align=center;verticalAlign=middle;whiteSpace=wrap;rounded=0;" parent="1" vertex="1">
          <mxGeometry x="262.5" y="430" width="60" height="30" as="geometry" />
        </mxCell>
      </root>
    </mxGraphModel>
  </diagram>
</mxfile>
